<svg width="513.5" height="81.961" viewBox="0 0 370.058 59.066" class="looka-1j8o68f">
  <defs>
    <linearGradient id="a">
      <stop stop-color="#7f00ff" offset="0"/>
      <stop stop-color="#e100ff" offset="1"/>
    </linearGradient>
  </defs>
  <g transform="translate(-9.722 -13.16)scale(.85387)" fill="url(#a)">
    <path xmlns="http://www.w3.org/2000/svg" d="M85.666 34.897 56.897 67.111c-.52.582-1.326.793-2.032.582L13.293 55.361c-1.438 3.656-2.206 7.028-1.797 9.977.433 3.136 2.268 5.9 6.185 8.193l38.696 11.056L88.54 46.684c-1.55-2.875-2.85-7.486-2.875-11.787"/>
    <path xmlns="http://www.w3.org/2000/svg" d="m87.797 24.423-40.245-9.01-31.88 36.514L54.779 63.53l32.857-36.79c.744-.88 1.686-1.797.161-2.318"/>
  </g>
  <path d="M86 49.926V9.772h10.243V39.99h19.254v9.936zm34.816 0V9.772h30.835v9.987h-20.54v5.766h14.466v9.318H131.11v5.147h20.54v9.936zm57.467.772c-5.817 0-10.81-2.06-14.98-6.126-4.222-4.067-6.333-9.009-6.333-14.723s2.111-10.656 6.332-14.723C167.472 11.06 172.466 9 178.282 9c5.87 0 10.914 2.06 15.084 6.126 3.14 3.037 5.096 6.59 5.817 10.553h-10.76a10.4 10.4 0 0 0-2.367-3.603c-2.11-2.11-4.685-3.14-7.773-3.14-3.038 0-5.612 1.08-7.722 3.191s-3.192 4.685-3.192 7.722 1.081 5.611 3.192 7.722 4.684 3.192 7.722 3.192c3.088 0 5.662-1.081 7.773-3.192 1.441-1.442 2.368-3.037 2.831-4.942h10.502c-.566 4.582-2.523 8.545-6.023 11.943-4.17 4.067-9.215 6.126-15.083 6.126m38.934-.772V19.759h-12.509V9.772h35.314v9.987h-12.509v30.167zm46.554 0c-5.817 0-10.347-1.648-13.59-5.045-3.244-3.346-4.84-7.619-4.84-12.921V9.772h10.296v21.57c0 2.883.67 5.045 2.06 6.538 1.39 1.544 3.397 2.316 6.074 2.316s4.736-.772 6.126-2.316c1.39-1.493 2.11-3.655 2.11-6.538V9.772h10.245V31.96c0 5.25-1.648 9.523-4.89 12.92s-7.774 5.046-13.591 5.046m23.8 0V9.772h17.709c5.044 0 8.957 1.287 11.685 3.861 2.729 2.626 4.067 5.869 4.067 9.627 0 3.964-1.338 7.258-4.067 9.832-.875.824-1.853 1.493-2.934 2.06l8.03 14.774h-9.729l-7.052-12.921h-7.413v12.92zm10.296-21.158h6.846c3.964 0 5.92-1.802 5.92-5.457 0-1.544-.463-2.78-1.441-3.81s-2.471-1.492-4.479-1.492h-6.846zm29.514 21.158 16.267-40.154h10.193l16.216 40.154h-11.223l-3.243-8.958H341.95l-3.346 8.958zm17.76-17.297 7.155-.052-3.552-9.626z" fill="#a6a6a6"/>
</svg>
